<svg xmlns="http://www.w3.org/2000/svg" width="800" height="800" viewBox="-1 0 160 160" fill="none" xmlns:v="https://vecta.io/nano"><g clip-path="url(#A)"><path d="M151.886 66.652l-2.83-2.609-23.17-22.19L86.201 3.874c-4.768-4.556-6.843-4.516-11.686.229l-3.424 3.355L19.655 57.73c-3.65 3.55-7.467 7.061-11.158 10.452L3.15 73.119c-.767.713-3.101 2.888-1.093 5.226 1.345 1.566 3.14 1.471 5.334-.282l4.24-3.485 2.681-2.221c.391-.324.799-.617 1.418-1.064l.203-.147.016 4.026-.032 10.303-.415 19.139-.527 25.393c-.089 5.376-.14 11.087.291 16.647.465 6.002 2.761 8.177 9.098 8.616l11.549.866 22.861 1.534 55.03 1.891 1.961.022c5.347-.041 10.687-.427 15.985-1.157 7.942-1.032 10.818-3.812 11.835-11.444 1.276-9.571 2.136-19.651 2.629-30.817.436-9.876.599-19.571.772-29.834l.212-11.73 1.869 1.717c2.431 2.107 5.046 2.288 6.822.473.401-.397.717-.871.931-1.393a4.19 4.19 0 0 0 .312-1.647c-.095-1.568-.806-3.034-1.978-4.076-1.067-1.032-2.186-2.047-3.268-3.023zM62.144 96.701l30.462-2.885.956 57.951-32.607-1.257 1.19-53.809zm39.476 5.417c-.008-2.937-.166-5.913-.318-8.791l-.113-2.203c-.103-2.062-.669-3.514-1.73-4.441-1.08-.942-2.644-1.313-4.781-1.119l-34.654 2.861c-4.645.352-6.21 2.043-6.206 6.704l-.018 49.536a36.94 36.94 0 0 1-.271 3.757l-.143 1.411-30.784-1.92-.177-1.398a27.46 27.46 0 0 1-.323-3.668l.155-16.065.168-19.17-.01-18.058.008-21.83c-.002-1.306.458-2.571 1.299-3.569l41.845-39.982 6.412-6.105 6.229-5.874 2.61-2.453 5.551 5.321 12.965 12.49 16.338 15.984 21.175 20.692c1.455 1.416 2.119 2.549 1.712 4.809a20.37 20.37 0 0 0 .018 5.487 30.63 30.63 0 0 1 .194 3.544l-.07 2.721-1.102 33.466c-.318 6.656-.84 13.419-1.34 19.959l-.663 8.848-.01.134a14.16 14.16 0 0 1-.074.824c-.74 5.863-1.252 6.389-6.838 7.033a160.61 160.61 0 0 1-27.032.842l.004-12.881-.023-36.895h-.001z" fill="red"/></g><defs><clipPath id="A"><path fill="red" transform="translate(.777)" d="M0 0h157v160H0z"/></clipPath></defs></svg>