<svg xmlns="http://www.w3.org/2000/svg" width="800" height="800" viewBox="0 -4 112 112" fill="none" xmlns:v="https://vecta.io/nano"><g clip-path="url(#A)"><path d="M3.088 53.606l.953-20.99.589-17.663.44-7.991c.077-1.319.558-2.48 1.906-2.83 2.743-.715 5.5-1.684 8.29-1.84 10.03-.563 20.07-.91 30.116-1.188C56.748.791 68.125.324 79.487.519c9.147.161 18.283 1.156 27.414 1.908 3.405.28 4.953 2.351 4.825 5.535l-1.021 28.32-1.857 41.973-.792 15.989c-.2 5.515-1.634 6.695-7 6.753l-35.425.823-20.852.748-35.404 1.376c-.774.03-1.549.02-2.319-.011-4.088-.161-5.882-1.864-5.8-6.01.139-7.002.435-14.003.763-21L3.28 53.615l-.192-.008zm97.066 40.245c1.554-9.506 4.244-77.888 3.281-82.68l-5.867-.507c-8.813-.515-17.63-1.439-26.441-1.396-13.797.068-27.591.789-41.386 1.249l-18.849.684L9.039 96.75l91.115-2.899z" fill="red"/></g><defs><clipPath id="A"><path fill="#fff" transform="translate(.777)" d="M0 0h111v104H0z"/></clipPath></defs></svg>